Coordinates
version=1
nRows=8
nColumns=63
inDegrees=yes

Units are S.I. units (second, meters, Newtons, ...)
If the header above contains a line with 'inDegrees', this indicates whether rotational values are in degrees (yes) or radians (no).

endheader
time	pelvis_tilt	pelvis_list	pelvis_rotation	pelvis_tx	pelvis_ty	pelvis_tz	hip_flexion_r	hip_adduction_r	hip_rotation_r	knee_angle_r	knee_angle_r_beta	ankle_angle_r	subtalar_angle_r	mtp_angle_r	hip_flexion_l	hip_adduction_l	hip_rotation_l	knee_angle_l	knee_angle_l_beta	ankle_angle_l	subtalar_angle_l	mtp_angle_l	L5_S1_Flex_Ext	L5_S1_Lat_Bending	L5_S1_axial_rotation	L4_L5_Flex_Ext	L4_L5_Lat_Bending	L4_L5_axial_rotation	L3_L4_Flex_Ext	L3_L4_Lat_Bending	L3_L4_axial_rotation	L2_L3_Flex_Ext	L2_L3_Lat_Bending	L2_L3_axial_rotation	L1_L2_Flex_Ext	L1_L2_Lat_Bending	L1_L2_axial_rotation	L1_T12_Flex_Ext	L1_T12_Lat_Bending	L1_T12_axial_rotation	Abs_r3	Abs_r2	Abs_r1	Abs_t1	Abs_t2	neck_flexion	neck_bending	neck_rotation	arm_flex_r	arm_add_r	arm_rot_r	elbow_flex_r	pro_sup_r	wrist_flex_r	wrist_dev_r	arm_flex_l	arm_add_l	arm_rot_l	elbow_flex_l	pro_sup_l	wrist_flex_l	wrist_dev_l
0.898305	10.581066	-6.226998	67.026761	0.288528	0.979209	0.547461	-1.303012	6.977153	4.166915	14.011906	0.244554	43.788120	18.324792	0.000000	-9.029038	-6.665137	-6.179724	7.351914	0.128315	38.872486	-16.840552	0.000000	0.048895	0.560735	0.311071	0.090803	0.745778	0.330513	0.080329	1.363372	0.330513	0.055882	1.363372	0.272187	0.045404	1.143451	0.252745	0.027939	0.868579	0.233304	0.349251	6.343150	1.730086	0.000000	0.000000	8.375927	-1.563814	-16.234180	-7.727275	-18.158521	9.854426	137.462611	88.108568	0.010634	-1.725000	-39.034085	-43.284813	29.346858	103.596122	89.266436	-15.652065	-18.916638
0.915254	10.386349	-6.362173	67.539791	0.287848	0.979639	0.548046	-1.041838	6.829764	3.627595	14.017810	0.244657	43.543307	18.248955	0.000000	-8.564088	-6.640978	-5.877452	7.629468	0.133159	38.854204	-16.466011	0.000000	0.052363	0.513604	0.282987	0.097243	0.683094	0.300674	0.086027	1.248778	0.300674	0.059845	1.248778	0.247614	0.048624	1.047342	0.229927	0.029920	0.795573	0.212240	0.374021	5.809995	1.573888	0.000000	0.000000	7.294943	-0.830991	-18.013121	-4.681738	-17.077752	8.365080	139.887370	88.024964	-0.858008	-0.564321	-38.490980	-43.586565	29.687315	103.393180	89.252972	-14.677484	-18.408214
0.932203	10.168457	-6.528635	68.189064	0.286946	0.980041	0.548814	-0.706756	6.663052	2.929095	14.054736	0.245301	43.271083	18.169861	0.000000	-7.989482	-6.623059	-5.551955	7.971280	0.139125	38.827351	-16.022309	0.000000	0.055728	0.464508	0.201494	0.103493	0.617795	0.214087	0.091556	1.129404	0.214087	0.063692	1.129404	0.176307	0.051749	0.947224	0.163714	0.031843	0.719523	0.151120	0.398060	5.254605	1.120647	0.000000	0.000000	6.232832	-0.115367	-19.706756	-1.531125	-16.133546	6.980309	142.150390	87.989810	-1.326389	0.640980	-38.240898	-43.838741	29.780412	103.212418	89.247243	-13.776680	-17.850494
0.949153	9.929648	-6.729684	68.957305	0.285818	0.980399	0.549792	-0.291415	6.480283	2.099136	14.123790	0.246507	42.981171	18.085384	0.000000	-7.301814	-6.610581	-5.225909	8.378040	0.146224	38.807699	-15.496785	0.000000	0.058938	0.415503	0.068104	0.109454	0.552619	0.072361	0.096830	1.010253	0.072361	0.067361	1.010253	0.059591	0.054730	0.847293	0.055335	0.033677	0.643614	0.051078	0.420990	4.700249	0.378776	0.000000	0.000000	5.225585	0.584692	-21.212780	1.690699	-15.408862	5.907253	144.151268	88.003965	-1.962747	1.269338	-38.225251	-44.070891	29.716905	103.049300	89.249155	-13.078780	-17.363079
0.966102	9.691268	-6.966857	69.827121	0.284459	0.980699	0.550960	0.193513	6.300225	1.152286	14.218781	0.248165	42.684068	18.008464	0.000000	-6.517583	-6.617456	-4.901587	8.839125	0.154272	38.807158	-14.902216	0.000000	0.061178	0.371182	-0.114140	0.113613	0.493672	-0.121274	0.100509	0.902492	-0.121274	0.069920	0.902492	-0.099872	0.056810	0.756914	-0.092739	0.034957	0.574961	-0.085605	0.436986	4.198885	-0.634811	0.000000	0.000000	4.300871	1.222210	-22.453322	4.918800	-14.889731	5.184623	145.834223	88.057191	-2.876000	1.131758	-38.381672	-44.265562	29.584458	102.891432	89.258381	-12.762884	-17.030393
0.983051	9.470614	-7.237542	70.775200	0.282897	0.980925	0.552288	0.732072	6.138561	0.119439	14.334200	0.250179	42.395549	17.942612	0.000000	-5.663719	-6.653313	-4.586674	9.335832	0.162941	38.831111	-14.261574	0.000000	0.061757	0.335685	-0.343696	0.114689	0.446461	-0.365177	0.101461	0.816184	-0.365177	0.070582	0.816184	-0.300734	0.057348	0.684529	-0.279253	0.035288	0.519976	-0.257772	0.441124	3.797335	-1.911532	0.000000	0.000000	3.457881	1.739076	-23.336523	8.058141	-14.515029	4.731300	147.217679	88.130302	-3.829027	0.459351	-38.687169	-44.379396	29.397291	102.730203	89.273096	-12.820902	-16.872667
1.000000	9.246024	-7.526032	71.760159	0.281169	0.981078	0.553822	1.323933	5.972757	-0.945954	14.483264	0.252781	42.144248	17.869091	0.000000	-4.748696	-6.685659	-4.289414	9.876000	0.172369	38.891431	-13.588434	0.000000	0.058813	0.306504	-0.615916	0.109222	0.407651	-0.654411	0.096624	0.745235	-0.654411	0.067217	0.745235	-0.538927	0.054614	0.625024	-0.500432	0.033606	0.474775	-0.461937	0.420095	3.467238	-3.425542	0.000000	0.000000	2.709035	2.119101	-23.828527	11.024967	-14.253935	4.530953	148.282208	88.208575	-4.774622	-0.797184	-39.148359	-44.378189	29.120723	102.560524	89.294323	-13.267784	-16.909714
1.016949	9.039683	-7.818009	72.762752	0.279282	0.981168	0.555499	1.922638	5.812546	-2.043328	14.636036	0.255447	41.927243	17.813497	0.000000	-3.818093	-6.727106	-4.034696	10.428921	0.182019	38.992790	-12.849872	0.000000	0.051825	0.288242	-0.912217	0.096244	0.383362	-0.969230	0.085143	0.700832	-0.969230	0.059231	0.700832	-0.798190	0.048125	0.587783	-0.741176	0.029613	0.446487	-0.684163	0.370180	3.260653	-5.073476	0.000000	0.000000	2.019896	2.312949	-23.914293	13.648483	-14.071661	4.495004	149.091075	88.296663	-5.804026	-2.355413	-39.603338	-44.328128	28.916476	102.367411	89.316635	-14.015414	-17.097557
